<?xml version="1.0" encoding="UTF-8"?><svg xmlns="http://www.w3.org/2000/svg" xmlns:xlink="http://www.w3.org/1999/xlink" width="187.5" zoomAndPan="magnify" viewBox="0 0 187.5 187.499995" height="187.499995" preserveAspectRatio="xMidYMid meet" version="1.0"><defs><clipPath id="clip-0"><path d="M 21.589844 55.769531 L 165.90625 55.769531 L 165.90625 132 L 21.589844 132 Z M 21.589844 55.769531 " clip-rule="nonzero"/></clipPath><clipPath id="clip-1"><path d="M 21.726562 93.917969 C 21.726562 114.902344 53.972656 131.917969 93.75 131.917969 C 133.527344 131.917969 165.773438 114.902344 165.773438 93.917969 C 165.773438 72.929688 133.527344 55.917969 93.75 55.917969 C 53.972656 55.917969 21.726562 72.929688 21.726562 93.917969 " clip-rule="nonzero"/></clipPath><clipPath id="clip-2"><path d="M 21.726562 93.917969 C 21.726562 114.902344 53.972656 131.917969 93.75 131.917969 C 133.527344 131.917969 165.773438 114.902344 165.773438 93.917969 C 165.773438 72.929688 133.527344 55.917969 93.75 55.917969 C 53.972656 55.917969 21.726562 72.929688 21.726562 93.917969 " clip-rule="nonzero"/></clipPath><radialGradient gradientTransform="matrix(0.998507, 0, 0, 1.001493, 64.969997, 69.275841)" xmlns:xlink="http://www.w3.org/1999/xlink" gradientUnits="userSpaceOnUse" xlink:type="simple" r="94.717487" xlink:actuate="onLoad" cx="0" id="radial-pattern-0" cy="0" xlink:show="other" fx="0" fy="0"><stop stop-opacity="1" stop-color="rgb(68.199158%, 69.799805%, 83.499146%)" offset="0"/><stop stop-opacity="1" stop-color="rgb(68.199158%, 69.799805%, 83.499146%)" offset="0.25"/><stop stop-opacity="1" stop-color="rgb(68.164062%, 69.764709%, 83.473206%)" offset="0.296875"/><stop stop-opacity="1" stop-color="rgb(67.956543%, 69.555664%, 83.317566%)" offset="0.300781"/><stop stop-opacity="1" stop-color="rgb(67.608643%, 69.20929%, 83.059692%)" offset="0.304688"/><stop stop-opacity="1" stop-color="rgb(67.260742%, 68.861389%, 82.800293%)" offset="0.308594"/><stop stop-opacity="1" stop-color="rgb(66.914368%, 68.513489%, 82.542419%)" offset="0.3125"/><stop stop-opacity="1" stop-color="rgb(66.566467%, 68.167114%, 82.28302%)" offset="0.316406"/><stop stop-opacity="1" stop-color="rgb(66.220093%, 67.819214%, 82.025146%)" offset="0.320312"/><stop stop-opacity="1" stop-color="rgb(65.872192%, 67.472839%, 81.765747%)" offset="0.324219"/><stop stop-opacity="1" stop-color="rgb(65.525818%, 67.124939%, 81.506348%)" offset="0.328125"/><stop stop-opacity="1" stop-color="rgb(65.177917%, 66.778564%, 81.248474%)" offset="0.332031"/><stop stop-opacity="1" stop-color="rgb(64.831543%, 66.430664%, 80.989075%)" offset="0.335938"/><stop stop-opacity="1" stop-color="rgb(64.483643%, 66.08429%, 80.731201%)" offset="0.339844"/><stop stop-opacity="1" stop-color="rgb(64.135742%, 65.736389%, 80.471802%)" offset="0.34375"/><stop stop-opacity="1" stop-color="rgb(63.789368%, 65.388489%, 80.213928%)" offset="0.347656"/><stop stop-opacity="1" stop-color="rgb(63.441467%, 65.042114%, 79.954529%)" offset="0.351562"/><stop stop-opacity="1" stop-color="rgb(63.095093%, 64.694214%, 79.696655%)" offset="0.355469"/><stop stop-opacity="1" stop-color="rgb(62.747192%, 64.347839%, 79.437256%)" offset="0.359375"/><stop stop-opacity="1" stop-color="rgb(62.400818%, 63.999939%, 79.179382%)" offset="0.363281"/><stop stop-opacity="1" stop-color="rgb(62.052917%, 63.653564%, 78.919983%)" offset="0.367188"/><stop stop-opacity="1" stop-color="rgb(61.706543%, 63.305664%, 78.662109%)" offset="0.371094"/><stop stop-opacity="1" stop-color="rgb(61.358643%, 62.95929%, 78.40271%)" offset="0.375"/><stop stop-opacity="1" stop-color="rgb(61.010742%, 62.611389%, 78.144836%)" offset="0.378906"/><stop stop-opacity="1" stop-color="rgb(60.664368%, 62.263489%, 77.885437%)" offset="0.382812"/><stop stop-opacity="1" stop-color="rgb(60.316467%, 61.917114%, 77.627563%)" offset="0.386719"/><stop stop-opacity="1" stop-color="rgb(59.970093%, 61.569214%, 77.368164%)" offset="0.390625"/><stop stop-opacity="1" stop-color="rgb(59.622192%, 61.222839%, 77.108765%)" offset="0.394531"/><stop stop-opacity="1" stop-color="rgb(59.275818%, 60.874939%, 76.850891%)" offset="0.398438"/><stop stop-opacity="1" stop-color="rgb(58.927917%, 60.528564%, 76.591492%)" offset="0.402344"/><stop stop-opacity="1" stop-color="rgb(58.581543%, 60.180664%, 76.333618%)" offset="0.40625"/><stop stop-opacity="1" stop-color="rgb(58.233643%, 59.83429%, 76.074219%)" offset="0.410156"/><stop stop-opacity="1" stop-color="rgb(57.885742%, 59.486389%, 75.816345%)" offset="0.414062"/><stop stop-opacity="1" stop-color="rgb(57.539368%, 59.138489%, 75.556946%)" offset="0.417969"/><stop stop-opacity="1" stop-color="rgb(57.191467%, 58.792114%, 75.299072%)" offset="0.421875"/><stop stop-opacity="1" stop-color="rgb(56.845093%, 58.444214%, 75.039673%)" offset="0.425781"/><stop stop-opacity="1" stop-color="rgb(56.497192%, 58.097839%, 74.781799%)" offset="0.429688"/><stop stop-opacity="1" stop-color="rgb(56.150818%, 57.749939%, 74.5224%)" offset="0.433594"/><stop stop-opacity="1" stop-color="rgb(55.802917%, 57.403564%, 74.264526%)" offset="0.4375"/><stop stop-opacity="1" stop-color="rgb(55.456543%, 57.055664%, 74.005127%)" offset="0.441406"/><stop stop-opacity="1" stop-color="rgb(55.108643%, 56.70929%, 73.747253%)" offset="0.445312"/><stop stop-opacity="1" stop-color="rgb(54.760742%, 56.361389%, 73.487854%)" offset="0.449219"/><stop stop-opacity="1" stop-color="rgb(54.414368%, 56.013489%, 73.22998%)" offset="0.453125"/><stop stop-opacity="1" stop-color="rgb(54.066467%, 55.667114%, 72.970581%)" offset="0.457031"/><stop stop-opacity="1" stop-color="rgb(53.720093%, 55.319214%, 72.711182%)" offset="0.460938"/><stop stop-opacity="1" stop-color="rgb(53.372192%, 54.972839%, 72.453308%)" offset="0.464844"/><stop stop-opacity="1" stop-color="rgb(53.025818%, 54.624939%, 72.193909%)" offset="0.46875"/><stop stop-opacity="1" stop-color="rgb(52.677917%, 54.278564%, 71.936035%)" offset="0.472656"/><stop stop-opacity="1" stop-color="rgb(52.331543%, 53.930664%, 71.676636%)" offset="0.476562"/><stop stop-opacity="1" stop-color="rgb(51.983643%, 53.58429%, 71.418762%)" offset="0.480469"/><stop stop-opacity="1" stop-color="rgb(51.635742%, 53.236389%, 71.159363%)" offset="0.484375"/><stop stop-opacity="1" stop-color="rgb(51.289368%, 52.888489%, 70.901489%)" offset="0.488281"/><stop stop-opacity="1" stop-color="rgb(50.941467%, 52.542114%, 70.64209%)" offset="0.492188"/><stop stop-opacity="1" stop-color="rgb(50.595093%, 52.194214%, 70.384216%)" offset="0.496094"/><stop stop-opacity="1" stop-color="rgb(50.247192%, 51.847839%, 70.124817%)" offset="0.5"/><stop stop-opacity="1" stop-color="rgb(49.900818%, 51.499939%, 69.866943%)" offset="0.503906"/><stop stop-opacity="1" stop-color="rgb(49.552917%, 51.153564%, 69.607544%)" offset="0.507812"/><stop stop-opacity="1" stop-color="rgb(49.206543%, 50.805664%, 69.34967%)" offset="0.511719"/><stop stop-opacity="1" stop-color="rgb(48.858643%, 50.45929%, 69.090271%)" offset="0.515625"/><stop stop-opacity="1" stop-color="rgb(48.510742%, 50.111389%, 68.832397%)" offset="0.519531"/><stop stop-opacity="1" stop-color="rgb(48.164368%, 49.763489%, 68.572998%)" offset="0.523438"/><stop stop-opacity="1" stop-color="rgb(47.816467%, 49.417114%, 68.313599%)" offset="0.527344"/><stop stop-opacity="1" stop-color="rgb(47.470093%, 49.069214%, 68.055725%)" offset="0.53125"/><stop stop-opacity="1" stop-color="rgb(47.122192%, 48.722839%, 67.796326%)" offset="0.535156"/><stop stop-opacity="1" stop-color="rgb(46.775818%, 48.374939%, 67.538452%)" offset="0.539062"/><stop stop-opacity="1" stop-color="rgb(46.427917%, 48.028564%, 67.279053%)" offset="0.542969"/><stop stop-opacity="1" stop-color="rgb(46.081543%, 47.680664%, 67.021179%)" offset="0.546875"/><stop stop-opacity="1" stop-color="rgb(45.733643%, 47.33429%, 66.76178%)" offset="0.550781"/><stop stop-opacity="1" stop-color="rgb(45.385742%, 46.986389%, 66.503906%)" offset="0.554688"/><stop stop-opacity="1" stop-color="rgb(45.039368%, 46.638489%, 66.244507%)" offset="0.558594"/><stop stop-opacity="1" stop-color="rgb(44.691467%, 46.292114%, 65.986633%)" offset="0.5625"/><stop stop-opacity="1" stop-color="rgb(44.345093%, 45.944214%, 65.727234%)" offset="0.566406"/><stop stop-opacity="1" stop-color="rgb(43.997192%, 45.597839%, 65.46936%)" offset="0.570312"/><stop stop-opacity="1" stop-color="rgb(43.650818%, 45.249939%, 65.209961%)" offset="0.574219"/><stop stop-opacity="1" stop-color="rgb(43.302917%, 44.903564%, 64.952087%)" offset="0.578125"/><stop stop-opacity="1" stop-color="rgb(42.956543%, 44.555664%, 64.692688%)" offset="0.582031"/><stop stop-opacity="1" stop-color="rgb(42.608643%, 44.20929%, 64.434814%)" offset="0.585938"/><stop stop-opacity="1" stop-color="rgb(42.260742%, 43.861389%, 64.175415%)" offset="0.589844"/><stop stop-opacity="1" stop-color="rgb(41.914368%, 43.513489%, 63.916016%)" offset="0.59375"/><stop stop-opacity="1" stop-color="rgb(41.566467%, 43.167114%, 63.658142%)" offset="0.597656"/><stop stop-opacity="1" stop-color="rgb(41.220093%, 42.819214%, 63.398743%)" offset="0.601562"/><stop stop-opacity="1" stop-color="rgb(40.872192%, 42.472839%, 63.140869%)" offset="0.605469"/><stop stop-opacity="1" stop-color="rgb(40.525818%, 42.124939%, 62.88147%)" offset="0.609375"/><stop stop-opacity="1" stop-color="rgb(40.177917%, 41.778564%, 62.623596%)" offset="0.613281"/><stop stop-opacity="1" stop-color="rgb(39.831543%, 41.430664%, 62.364197%)" offset="0.617188"/><stop stop-opacity="1" stop-color="rgb(39.483643%, 41.08429%, 62.106323%)" offset="0.621094"/><stop stop-opacity="1" stop-color="rgb(39.135742%, 40.736389%, 61.846924%)" offset="0.625"/><stop stop-opacity="1" stop-color="rgb(38.789368%, 40.388489%, 61.58905%)" offset="0.628906"/><stop stop-opacity="1" stop-color="rgb(38.441467%, 40.042114%, 61.329651%)" offset="0.632812"/><stop stop-opacity="1" stop-color="rgb(38.095093%, 39.694214%, 61.071777%)" offset="0.636719"/><stop stop-opacity="1" stop-color="rgb(37.747192%, 39.347839%, 60.812378%)" offset="0.640625"/><stop stop-opacity="1" stop-color="rgb(37.400818%, 38.999939%, 60.554504%)" offset="0.644531"/><stop stop-opacity="1" stop-color="rgb(37.052917%, 38.653564%, 60.295105%)" offset="0.648438"/><stop stop-opacity="1" stop-color="rgb(36.706543%, 38.305664%, 60.037231%)" offset="0.652344"/><stop stop-opacity="1" stop-color="rgb(36.358643%, 37.95929%, 59.777832%)" offset="0.65625"/><stop stop-opacity="1" stop-color="rgb(36.010742%, 37.611389%, 59.518433%)" offset="0.660156"/><stop stop-opacity="1" stop-color="rgb(35.664368%, 37.263489%, 59.260559%)" offset="0.664062"/><stop stop-opacity="1" stop-color="rgb(35.316467%, 36.917114%, 59.00116%)" offset="0.667969"/><stop stop-opacity="1" stop-color="rgb(34.970093%, 36.569214%, 58.743286%)" offset="0.671875"/><stop stop-opacity="1" stop-color="rgb(34.622192%, 36.222839%, 58.483887%)" offset="0.675781"/><stop stop-opacity="1" stop-color="rgb(34.275818%, 35.874939%, 58.226013%)" offset="0.679688"/><stop stop-opacity="1" stop-color="rgb(33.927917%, 35.528564%, 57.966614%)" offset="0.683594"/><stop stop-opacity="1" stop-color="rgb(33.581543%, 35.180664%, 57.70874%)" offset="0.6875"/><stop stop-opacity="1" stop-color="rgb(33.233643%, 34.83429%, 57.449341%)" offset="0.691406"/><stop stop-opacity="1" stop-color="rgb(32.885742%, 34.486389%, 57.191467%)" offset="0.695312"/><stop stop-opacity="1" stop-color="rgb(32.539368%, 34.138489%, 56.932068%)" offset="0.699219"/><stop stop-opacity="1" stop-color="rgb(32.191467%, 33.792114%, 56.674194%)" offset="0.703125"/><stop stop-opacity="1" stop-color="rgb(31.845093%, 33.444214%, 56.414795%)" offset="0.707031"/><stop stop-opacity="1" stop-color="rgb(31.497192%, 33.097839%, 56.156921%)" offset="0.710938"/><stop stop-opacity="1" stop-color="rgb(31.150818%, 32.749939%, 55.897522%)" offset="0.714844"/><stop stop-opacity="1" stop-color="rgb(30.802917%, 32.403564%, 55.639648%)" offset="0.71875"/><stop stop-opacity="1" stop-color="rgb(30.456543%, 32.055664%, 55.380249%)" offset="0.722656"/><stop stop-opacity="1" stop-color="rgb(30.108643%, 31.70929%, 55.122375%)" offset="0.726562"/><stop stop-opacity="1" stop-color="rgb(29.760742%, 31.361389%, 54.862976%)" offset="0.730469"/><stop stop-opacity="1" stop-color="rgb(29.414368%, 31.013489%, 54.603577%)" offset="0.734375"/><stop stop-opacity="1" stop-color="rgb(29.066467%, 30.667114%, 54.345703%)" offset="0.738281"/><stop stop-opacity="1" stop-color="rgb(28.720093%, 30.319214%, 54.086304%)" offset="0.742188"/><stop stop-opacity="1" stop-color="rgb(28.372192%, 29.972839%, 53.82843%)" offset="0.746094"/><stop stop-opacity="1" stop-color="rgb(28.199768%, 29.798889%, 53.69873%)" offset="1"/></radialGradient></defs><g clip-path="url(#clip-0)"><g clip-path="url(#clip-1)"><g clip-path="url(#clip-2)"><path fill="url(#radial-pattern-0)" d="M 21.726562 55.917969 L 21.726562 131.917969 L 165.773438 131.917969 L 165.773438 55.917969 Z M 21.726562 55.917969 " fill-rule="nonzero"/></g></g></g><path fill="rgb(46.669006%, 48.239136%, 70.199585%)" d="M 93.75 129.09375 C 131.972656 129.09375 162.960938 113.34375 162.960938 93.917969 C 162.960938 74.488281 131.972656 58.738281 93.75 58.738281 C 55.527344 58.738281 24.539062 74.488281 24.539062 93.914062 C 24.539062 113.34375 55.527344 129.09375 93.75 129.09375 " fill-opacity="1" fill-rule="nonzero"/><path fill="rgb(0%, 0%, 0%)" d="M 60.859375 98.277344 C 64 98.277344 66.347656 97.695312 67.832031 96.550781 C 69.300781 95.417969 70.316406 93.449219 70.847656 90.710938 C 71.34375 88.148438 71.152344 86.359375 70.285156 85.394531 C 69.398438 84.40625 67.480469 83.90625 64.582031 83.90625 L 59.558594 83.90625 L 56.773438 98.277344 Z M 44.429688 115.980469 C 44.3125 115.980469 44.203125 115.953125 44.097656 115.90625 C 43.992188 115.855469 43.902344 115.785156 43.828125 115.695312 C 43.753906 115.605469 43.703125 115.5 43.671875 115.386719 C 43.644531 115.273438 43.640625 115.160156 43.664062 115.046875 L 51.042969 76.964844 C 51.078125 76.78125 51.167969 76.628906 51.3125 76.507812 C 51.457031 76.390625 51.621094 76.332031 51.808594 76.332031 L 67.714844 76.332031 C 72.710938 76.332031 76.433594 77.691406 78.769531 80.375 C 81.121094 83.074219 81.847656 86.847656 80.929688 91.589844 C 80.554688 93.523438 79.910156 95.316406 79.015625 96.921875 C 78.121094 98.53125 76.9375 100.019531 75.496094 101.347656 C 73.773438 102.964844 71.824219 104.136719 69.703125 104.828125 C 67.621094 105.507812 64.941406 105.855469 61.746094 105.855469 L 55.308594 105.855469 L 53.46875 115.34375 C 53.433594 115.527344 53.34375 115.679688 53.199219 115.800781 C 53.054688 115.917969 52.886719 115.980469 52.699219 115.980469 Z M 44.429688 115.980469 " fill-opacity="1" fill-rule="nonzero"/><path fill="rgb(100%, 100%, 100%)" d="M 60.203125 84.691406 L 64.582031 84.691406 C 68.078125 84.691406 69.292969 85.460938 69.707031 85.917969 C 70.390625 86.679688 70.519531 88.285156 70.078125 90.5625 C 69.585938 93.109375 68.667969 94.914062 67.355469 95.929688 C 66.011719 96.96875 63.824219 97.492188 60.859375 97.492188 L 57.722656 97.492188 Z M 67.714844 75.546875 L 51.808594 75.546875 C 51.433594 75.546875 51.105469 75.664062 50.816406 75.90625 C 50.527344 76.144531 50.347656 76.445312 50.273438 76.816406 L 42.894531 114.894531 C 42.851562 115.125 42.859375 115.355469 42.914062 115.582031 C 42.972656 115.808594 43.078125 116.011719 43.226562 116.191406 C 43.375 116.371094 43.554688 116.511719 43.765625 116.613281 C 43.976562 116.710938 44.195312 116.761719 44.429688 116.761719 L 52.703125 116.761719 C 53.074219 116.761719 53.40625 116.644531 53.695312 116.40625 C 53.984375 116.167969 54.164062 115.863281 54.234375 115.496094 L 55.953125 106.636719 L 61.746094 106.636719 C 65.023438 106.636719 67.785156 106.28125 69.949219 105.574219 C 72.171875 104.847656 74.21875 103.617188 76.03125 101.917969 C 77.53125 100.535156 78.765625 98.984375 79.699219 97.304688 C 80.632812 95.628906 81.308594 93.753906 81.695312 91.742188 C 82.664062 86.75 81.878906 82.753906 79.359375 79.859375 C 76.867188 77 72.949219 75.546875 67.714844 75.546875 M 55.828125 99.0625 L 60.859375 99.0625 C 64.191406 99.0625 66.675781 98.429688 68.308594 97.171875 C 69.941406 95.910156 71.042969 93.808594 71.613281 90.859375 C 72.160156 88.03125 71.910156 86.03125 70.867188 84.867188 C 69.820312 83.707031 67.722656 83.125 64.582031 83.125 L 58.914062 83.125 L 55.828125 99.0625 M 67.714844 77.113281 C 72.5 77.113281 75.988281 78.375 78.183594 80.890625 C 80.375 83.410156 81.039062 86.925781 80.164062 91.441406 C 79.800781 93.300781 79.191406 95 78.335938 96.542969 C 77.476562 98.082031 76.355469 99.492188 74.96875 100.769531 C 73.316406 102.320312 71.484375 103.425781 69.464844 104.082031 C 67.445312 104.742188 64.875 105.070312 61.746094 105.070312 L 54.664062 105.070312 L 52.703125 115.195312 L 44.429688 115.195312 L 51.808594 77.113281 L 67.714844 77.113281 " fill-opacity="1" fill-rule="nonzero"/><path fill="rgb(0%, 0%, 0%)" d="M 99.894531 105.855469 C 99.660156 105.855469 99.4375 105.75 99.289062 105.570312 C 99.132812 105.378906 99.078125 105.164062 99.125 104.921875 L 102.390625 88.070312 C 102.699219 86.46875 102.625 85.320312 102.175781 84.832031 C 101.898438 84.535156 101.074219 84.039062 98.628906 84.039062 L 92.714844 84.039062 L 88.613281 105.21875 C 88.578125 105.40625 88.488281 105.554688 88.34375 105.675781 C 88.199219 105.796875 88.03125 105.855469 87.84375 105.855469 L 79.640625 105.855469 C 79.523438 105.855469 79.410156 105.828125 79.304688 105.78125 C 79.199219 105.730469 79.109375 105.660156 79.035156 105.570312 C 78.960938 105.480469 78.910156 105.378906 78.882812 105.265625 C 78.851562 105.152344 78.851562 105.035156 78.871094 104.921875 L 86.25 66.839844 C 86.289062 66.65625 86.378906 66.503906 86.523438 66.386719 C 86.667969 66.265625 86.832031 66.207031 87.019531 66.207031 L 95.222656 66.207031 C 95.339844 66.207031 95.453125 66.230469 95.558594 66.28125 C 95.664062 66.332031 95.753906 66.402344 95.828125 66.492188 C 95.902344 66.582031 95.953125 66.683594 95.980469 66.796875 C 96.011719 66.910156 96.015625 67.023438 95.992188 67.140625 L 94.210938 76.332031 L 100.574219 76.332031 C 105.417969 76.332031 108.707031 77.1875 110.621094 78.949219 C 112.570312 80.75 113.179688 83.625 112.429688 87.5 L 108.996094 105.21875 C 108.960938 105.40625 108.871094 105.554688 108.726562 105.675781 C 108.582031 105.796875 108.417969 105.855469 108.230469 105.855469 Z M 99.894531 105.855469 " fill-opacity="1" fill-rule="nonzero"/><path fill="rgb(100%, 100%, 100%)" d="M 95.222656 65.421875 L 87.019531 65.421875 C 86.644531 65.421875 86.3125 65.542969 86.023438 65.78125 C 85.734375 66.019531 85.554688 66.320312 85.484375 66.691406 L 78.105469 104.773438 C 78.058594 105 78.066406 105.230469 78.125 105.457031 C 78.183594 105.683594 78.285156 105.886719 78.433594 106.066406 C 78.582031 106.25 78.761719 106.390625 78.972656 106.488281 C 79.183594 106.589844 79.40625 106.636719 79.640625 106.636719 L 87.84375 106.636719 C 88.21875 106.636719 88.550781 106.519531 88.839844 106.28125 C 89.128906 106.042969 89.308594 105.738281 89.378906 105.371094 L 93.359375 84.820312 L 98.628906 84.820312 C 101.070312 84.820312 101.582031 85.34375 101.601562 85.367188 C 101.75 85.527344 101.945312 86.265625 101.625 87.921875 L 98.359375 104.773438 C 98.316406 105 98.320312 105.230469 98.378906 105.457031 C 98.4375 105.683594 98.539062 105.886719 98.6875 106.066406 C 98.835938 106.25 99.015625 106.390625 99.226562 106.488281 C 99.4375 106.589844 99.660156 106.636719 99.894531 106.636719 L 108.230469 106.636719 C 108.605469 106.636719 108.933594 106.519531 109.222656 106.28125 C 109.511719 106.042969 109.691406 105.738281 109.765625 105.371094 L 113.195312 87.648438 C 114.003906 83.488281 113.3125 80.367188 111.148438 78.375 C 109.082031 76.472656 105.625 75.546875 100.574219 75.546875 L 95.160156 75.546875 L 96.757812 67.289062 C 96.804688 67.058594 96.796875 66.832031 96.738281 66.605469 C 96.683594 66.375 96.578125 66.171875 96.429688 65.992188 C 96.28125 65.8125 96.101562 65.671875 95.890625 65.570312 C 95.679688 65.472656 95.457031 65.421875 95.222656 65.421875 M 95.222656 66.988281 L 93.261719 77.113281 L 100.574219 77.113281 C 105.171875 77.113281 108.34375 77.917969 110.089844 79.527344 C 111.835938 81.136719 112.359375 83.746094 111.664062 87.351562 L 108.230469 105.070312 L 99.894531 105.070312 L 103.15625 88.222656 C 103.527344 86.304688 103.390625 84.996094 102.746094 84.300781 C 102.101562 83.601562 100.730469 83.253906 98.628906 83.253906 L 92.074219 83.253906 L 87.84375 105.070312 L 79.640625 105.070312 L 87.019531 66.988281 L 95.226562 66.988281 " fill-opacity="1" fill-rule="nonzero"/><path fill="rgb(0%, 0%, 0%)" d="M 125.414062 98.277344 C 128.554688 98.277344 130.902344 97.695312 132.386719 96.550781 C 133.855469 95.417969 134.871094 93.453125 135.402344 90.710938 C 135.898438 88.148438 135.710938 86.359375 134.839844 85.394531 C 133.953125 84.40625 132.035156 83.90625 129.136719 83.90625 L 124.113281 83.90625 L 121.332031 98.277344 Z M 108.984375 115.980469 C 108.871094 115.980469 108.757812 115.953125 108.652344 115.90625 C 108.546875 115.855469 108.457031 115.785156 108.382812 115.695312 C 108.308594 115.605469 108.257812 115.5 108.226562 115.386719 C 108.199219 115.273438 108.195312 115.160156 108.21875 115.046875 L 115.597656 76.964844 C 115.632812 76.78125 115.722656 76.628906 115.867188 76.507812 C 116.011719 76.390625 116.179688 76.332031 116.367188 76.332031 L 132.269531 76.332031 C 137.269531 76.332031 140.988281 77.691406 143.328125 80.375 C 145.679688 83.074219 146.402344 86.847656 145.484375 91.589844 C 145.109375 93.523438 144.46875 95.316406 143.574219 96.921875 C 142.675781 98.53125 141.492188 100.019531 140.054688 101.347656 C 138.328125 102.964844 136.378906 104.136719 134.261719 104.828125 C 132.175781 105.507812 129.5 105.855469 126.304688 105.855469 L 119.863281 105.855469 L 118.023438 115.34375 C 117.988281 115.527344 117.898438 115.679688 117.753906 115.800781 C 117.609375 115.917969 117.445312 115.980469 117.257812 115.980469 Z M 108.984375 115.980469 " fill-opacity="1" fill-rule="nonzero"/><path fill="rgb(100%, 100%, 100%)" d="M 124.757812 84.691406 L 129.136719 84.691406 C 132.632812 84.691406 133.847656 85.460938 134.261719 85.917969 C 134.945312 86.679688 135.074219 88.285156 134.636719 90.5625 C 134.140625 93.109375 133.222656 94.914062 131.910156 95.929688 C 130.566406 96.96875 128.378906 97.492188 125.414062 97.492188 L 122.277344 97.492188 Z M 132.269531 75.546875 L 116.367188 75.546875 C 115.992188 75.546875 115.660156 75.664062 115.371094 75.90625 C 115.082031 76.144531 114.902344 76.445312 114.832031 76.816406 L 107.453125 114.894531 C 107.40625 115.125 107.414062 115.355469 107.472656 115.582031 C 107.527344 115.808594 107.632812 116.011719 107.78125 116.191406 C 107.929688 116.371094 108.109375 116.511719 108.320312 116.613281 C 108.53125 116.710938 108.753906 116.761719 108.984375 116.761719 L 117.257812 116.761719 C 117.632812 116.761719 117.960938 116.644531 118.25 116.40625 C 118.539062 116.167969 118.71875 115.863281 118.792969 115.496094 L 120.507812 106.636719 L 126.304688 106.636719 C 129.582031 106.636719 132.339844 106.28125 134.503906 105.574219 C 136.726562 104.847656 138.777344 103.617188 140.585938 101.917969 C 142.085938 100.535156 143.320312 98.984375 144.253906 97.304688 C 145.191406 95.628906 145.863281 93.753906 146.253906 91.742188 C 147.21875 86.75 146.433594 82.75 143.914062 79.859375 C 141.421875 77 137.503906 75.546875 132.269531 75.546875 M 120.382812 99.0625 L 125.414062 99.0625 C 128.75 99.0625 131.230469 98.429688 132.863281 97.171875 C 134.496094 95.910156 135.597656 93.808594 136.167969 90.859375 C 136.71875 88.03125 136.46875 86.03125 135.421875 84.867188 C 134.375 83.707031 132.28125 83.125 129.136719 83.125 L 123.472656 83.125 L 120.382812 99.0625 M 132.269531 77.113281 C 137.054688 77.113281 140.546875 78.375 142.738281 80.890625 C 144.933594 83.410156 145.59375 86.925781 144.71875 91.441406 C 144.359375 93.300781 143.75 95 142.890625 96.542969 C 142.03125 98.082031 140.910156 99.492188 139.523438 100.769531 C 137.871094 102.320312 136.039062 103.425781 134.019531 104.082031 C 132 104.742188 129.429688 105.070312 126.304688 105.070312 L 119.21875 105.070312 L 117.257812 115.195312 L 108.984375 115.195312 L 116.367188 77.113281 L 132.269531 77.113281 " fill-opacity="1" fill-rule="nonzero"/></svg>