<?xml version="1.0" encoding="UTF-8"?><svg xmlns="http://www.w3.org/2000/svg" xmlns:xlink="http://www.w3.org/1999/xlink" width="187.5" zoomAndPan="magnify" viewBox="0 0 187.5 187.499995" height="187.499995" preserveAspectRatio="xMidYMid meet" version="1.0"><defs><clipPath id="clip-0"><path d="M 0 0 L 187 0 L 187 187 L 0 187 Z M 0 0 " clip-rule="nonzero"/></clipPath></defs><g clip-path="url(#clip-0)"><path fill="rgb(100%, 100%, 100%)" d="M 0 0 L 187.5 0 L 187.5 576 L 0 576 Z M 0 0 " fill-opacity="1" fill-rule="nonzero"/><path fill="rgb(100%, 100%, 100%)" d="M 0 0 L 187.5 0 L 187.5 187.5 L 0 187.5 Z M 0 0 " fill-opacity="1" fill-rule="nonzero"/><path fill="rgb(100%, 100%, 100%)" d="M 0 0 L 187.5 0 L 187.5 187.5 L 0 187.5 Z M 0 0 " fill-opacity="1" fill-rule="nonzero"/></g><path fill="rgb(0%, 38.038635%, 54.119873%)" d="M 21.664062 124.386719 L 26.414062 124.386719 L 26.414062 105.621094 L 33.769531 121.980469 C 34.636719 123.960938 35.824219 124.664062 38.152344 124.664062 C 40.480469 124.664062 41.625 123.960938 42.492188 121.980469 L 49.84375 105.621094 L 49.84375 124.386719 L 54.59375 124.386719 L 54.59375 105.652344 C 54.59375 103.824219 53.863281 102.941406 52.355469 102.484375 C 48.75 101.355469 46.328125 102.332031 45.230469 104.769531 L 38.015625 120.914062 L 31.027344 104.769531 C 29.976562 102.332031 27.511719 101.355469 23.902344 102.484375 C 22.398438 102.941406 21.664062 103.824219 21.664062 105.652344 Z M 58.542969 109.113281 L 63.292969 109.113281 L 63.292969 119.453125 C 63.246094 120.015625 63.472656 121.332031 66.074219 121.371094 C 67.402344 121.394531 76.316406 121.371094 76.402344 121.371094 L 76.402344 109.0625 L 81.160156 109.0625 C 81.183594 109.0625 81.15625 125.851562 81.15625 125.921875 C 81.183594 130.0625 76.023438 130.960938 73.644531 131.03125 L 58.644531 131.03125 L 58.644531 127.835938 C 58.671875 127.835938 73.632812 127.835938 73.671875 127.832031 C 76.726562 127.511719 76.367188 125.992188 76.367188 125.480469 L 76.367188 124.230469 L 66.269531 124.230469 C 61.574219 124.1875 58.582031 122.136719 58.546875 119.777344 C 58.542969 119.558594 58.648438 109.214844 58.542969 109.113281 Z M 58.542969 109.113281 " fill-opacity="1" fill-rule="nonzero"/><path fill="rgb(89.408875%, 55.688477%, 0%)" d="M 84.820312 124.386719 L 98.476562 124.386719 C 100.074219 124.386719 101.628906 124.054688 102.859375 123.472656 C 104.914062 122.53125 105.921875 121.25 105.921875 119.574219 L 105.921875 116.101562 C 105.921875 114.730469 104.777344 113.449219 102.539062 112.597656 C 101.351562 112.140625 99.890625 111.898438 98.476562 111.898438 L 92.722656 111.898438 C 90.804688 111.898438 89.890625 111.320312 89.664062 110.039062 C 89.617188 109.886719 89.617188 109.765625 89.617188 109.613281 L 89.617188 107.449219 C 89.617188 107.328125 89.617188 107.207031 89.664062 107.054688 C 89.890625 106.078125 90.394531 105.804688 92.082031 105.652344 C 92.21875 105.652344 92.402344 105.621094 92.539062 105.621094 L 106.101562 105.621094 L 106.101562 102.453125 L 92.765625 102.453125 C 90.847656 102.453125 89.84375 102.574219 88.929688 102.847656 C 86.101562 103.734375 84.867188 105.132812 84.867188 107.570312 L 84.867188 110.34375 C 84.867188 112.476562 87.289062 114.304688 91.351562 114.730469 C 91.808594 114.761719 92.265625 114.792969 92.722656 114.792969 L 97.652344 114.792969 C 97.835938 114.792969 98.019531 114.792969 98.15625 114.820312 C 99.664062 114.945312 100.304688 115.21875 100.761719 115.765625 C 101.035156 116.039062 101.125 116.316406 101.125 116.621094 L 101.125 119.390625 C 101.125 119.726562 100.898438 120.152344 100.441406 120.519531 C 100.027344 120.886719 99.34375 121.128906 98.429688 121.191406 C 98.246094 121.191406 98.109375 121.21875 97.929688 121.21875 L 84.820312 121.21875 Z M 135.550781 118.875 C 135.550781 122.132812 137.96875 123.960938 142.855469 124.328125 C 143.3125 124.359375 143.769531 124.386719 144.226562 124.386719 L 156.605469 124.386719 L 156.605469 121.21875 L 144.136719 121.21875 C 141.351562 121.21875 140.300781 120.519531 140.300781 118.84375 L 140.300781 102.453125 L 135.550781 102.453125 Z M 108.953125 119.039062 L 108.953125 107.746094 C 108.953125 104.875 110.964844 103.132812 114.945312 102.585938 C 115.371094 102.523438 115.800781 102.492188 116.226562 102.492188 L 125.242188 102.492188 C 125.703125 102.492188 126.113281 102.523438 126.570312 102.585938 C 130.554688 103.132812 132.566406 104.875 132.566406 107.746094 L 132.566406 119.039062 C 132.566406 121.367188 131.710938 122.613281 129.738281 123.425781 L 134.417969 127.652344 L 128.902344 127.652344 L 125.117188 124.234375 L 121.308594 124.476562 L 116.226562 124.476562 C 115.359375 124.476562 114.445312 124.351562 113.4375 124.078125 C 110.417969 123.253906 108.953125 121.664062 108.953125 119.039062 Z M 114.078125 118.765625 C 114.078125 118.917969 114.125 119.070312 114.167969 119.253906 C 114.445312 120.566406 115.679688 121.300781 117.554688 121.300781 L 121.871094 121.300781 L 117.90625 117.71875 L 123.421875 117.71875 L 126.878906 120.84375 C 127.515625 120.503906 127.9375 119.984375 128.082031 119.316406 C 128.128906 119.164062 128.128906 119.011719 128.128906 118.859375 L 128.128906 108.019531 C 128.128906 107.898438 128.128906 107.746094 128.082031 107.589844 C 127.808594 106.371094 126.570312 105.667969 124.742188 105.667969 L 117.554688 105.667969 C 115.453125 105.667969 114.078125 106.585938 114.078125 108.019531 Z M 114.078125 118.765625 " fill-opacity="1" fill-rule="nonzero"/><path fill="rgb(0%, 38.038635%, 54.119873%)" d="M 160.78125 97.195312 C 157.863281 97.117188 155.632812 97.390625 153.726562 98.195312 C 153.183594 98.421875 152.320312 98.429688 152.230469 99.109375 C 152.53125 99.421875 152.574219 99.886719 152.8125 100.269531 C 153.269531 101.007812 154.035156 101.996094 154.722656 102.515625 C 155.472656 103.078125 156.242188 103.683594 157.046875 104.175781 C 158.476562 105.046875 160.070312 105.542969 161.445312 106.417969 C 162.257812 106.933594 163.0625 107.582031 163.855469 108.164062 C 164.246094 108.449219 164.507812 108.894531 165.015625 109.078125 L 165.015625 108.992188 C 164.75 108.652344 164.679688 108.183594 164.433594 107.828125 L 163.355469 106.75 C 162.300781 105.347656 160.960938 104.117188 159.539062 103.09375 C 158.402344 102.28125 155.859375 101.179688 155.386719 99.855469 L 155.304688 99.773438 C 156.109375 99.679688 157.050781 99.390625 157.792969 99.191406 C 159.042969 98.855469 160.15625 98.941406 161.445312 98.609375 C 162.027344 98.441406 162.609375 98.277344 163.191406 98.109375 L 163.191406 97.777344 C 162.539062 97.109375 162.074219 96.222656 161.363281 95.617188 C 159.503906 94.035156 157.476562 92.453125 155.386719 91.132812 C 154.226562 90.402344 152.796875 89.925781 151.566406 89.304688 C 151.15625 89.097656 150.429688 88.988281 150.15625 88.640625 C 149.511719 87.816406 149.160156 86.773438 148.660156 85.816406 C 147.621094 83.808594 146.597656 81.613281 145.671875 79.503906 C 145.042969 78.0625 144.632812 76.640625 143.847656 75.347656 C 140.078125 69.148438 136.019531 65.40625 129.734375 61.726562 C 128.398438 60.941406 126.785156 60.632812 125.085938 60.230469 L 122.34375 60.0625 C 121.789062 59.832031 121.207031 59.148438 120.683594 58.816406 C 118.601562 57.5 113.261719 54.636719 111.71875 58.402344 C 110.746094 60.777344 113.175781 63.097656 114.042969 64.300781 C 114.652344 65.144531 115.433594 66.089844 115.871094 67.042969 C 116.15625 67.667969 116.207031 68.292969 116.453125 68.953125 C 117.054688 70.578125 117.578125 72.351562 118.359375 73.855469 C 118.753906 74.613281 119.191406 75.417969 119.6875 76.097656 C 119.996094 76.515625 120.519531 76.699219 120.601562 77.34375 C 120.089844 78.0625 120.058594 79.175781 119.773438 80.085938 C 118.472656 84.179688 118.964844 89.265625 120.851562 92.296875 C 121.429688 93.226562 122.792969 95.21875 124.667969 94.457031 C 126.308594 93.785156 125.945312 91.714844 126.414062 89.886719 C 126.519531 89.472656 126.453125 89.167969 126.664062 88.890625 L 126.664062 88.972656 L 128.15625 91.964844 C 129.261719 93.746094 131.226562 95.609375 132.890625 96.863281 C 133.75 97.515625 134.429688 98.644531 135.546875 99.023438 L 135.546875 98.941406 L 135.460938 98.941406 C 135.246094 98.605469 134.90625 98.464844 134.632812 98.195312 C 133.980469 97.554688 133.261719 96.765625 132.722656 96.035156 C 131.210938 93.980469 129.871094 91.730469 128.65625 89.386719 C 128.074219 88.269531 127.566406 87.035156 127.078125 85.898438 C 126.886719 85.460938 126.890625 84.796875 126.496094 84.570312 C 125.960938 85.402344 125.167969 86.078125 124.753906 87.0625 C 124.089844 88.636719 124.003906 90.554688 123.757812 92.542969 C 123.613281 92.597656 123.675781 92.5625 123.589844 92.628906 C 122.433594 92.347656 122.027344 91.15625 121.597656 90.136719 C 120.511719 87.550781 120.308594 83.390625 121.265625 80.417969 C 121.511719 79.648438 122.632812 77.222656 122.179688 76.511719 C 121.964844 75.804688 121.25 75.390625 120.851562 74.851562 C 120.355469 74.179688 119.863281 73.296875 119.523438 72.523438 C 118.632812 70.507812 118.21875 68.246094 117.28125 66.210938 C 116.832031 65.238281 116.078125 64.253906 115.453125 63.386719 C 114.765625 62.429688 113.996094 61.722656 113.460938 60.5625 C 113.273438 60.148438 113.015625 59.492188 113.296875 59.066406 C 113.386719 58.78125 113.511719 58.660156 113.792969 58.566406 C 114.277344 58.195312 115.617188 58.691406 116.117188 58.902344 C 117.449219 59.453125 118.5625 59.980469 119.6875 60.726562 C 120.230469 61.085938 120.777344 61.78125 121.433594 61.972656 L 122.179688 61.972656 C 123.347656 62.242188 124.65625 62.058594 125.75 62.390625 C 127.679688 62.976562 129.410156 63.890625 130.980469 64.882812 C 135.765625 67.90625 139.675781 72.207031 142.351562 77.34375 C 142.785156 78.167969 142.96875 78.957031 143.347656 79.835938 C 144.113281 81.601562 145.078125 83.421875 145.839844 85.152344 C 146.597656 86.875 147.339844 88.617188 148.414062 90.054688 C 148.976562 90.808594 151.15625 91.210938 152.148438 91.632812 C 152.84375 91.925781 153.980469 92.230469 154.640625 92.628906 C 155.894531 93.386719 157.113281 94.289062 158.292969 95.121094 C 158.882812 95.535156 160.691406 96.445312 160.78125 97.195312 Z M 160.78125 97.195312 " fill-opacity="1" fill-rule="nonzero"/><path fill="rgb(0%, 38.038635%, 54.119873%)" d="M 123.675781 65.546875 C 123.066406 65.535156 122.632812 65.613281 122.179688 65.710938 L 122.179688 65.796875 L 122.261719 65.796875 C 122.554688 66.394531 123.066406 66.777344 123.425781 67.289062 C 123.699219 67.871094 123.976562 68.453125 124.253906 69.035156 L 124.335938 68.953125 C 124.851562 68.589844 125.085938 68.011719 125.085938 67.125 C 124.878906 66.910156 124.847656 66.636719 124.667969 66.378906 C 124.433594 66.03125 123.972656 65.835938 123.675781 65.546875 Z M 123.675781 65.546875 " fill-opacity="1" fill-rule="evenodd"/><path fill="rgb(89.408875%, 55.688477%, 0%)" d="M 158.832031 121.128906 C 158.832031 123.222656 160.484375 124.632812 162.332031 124.632812 C 164.183594 124.632812 165.835938 123.222656 165.835938 121.128906 C 165.835938 119.039062 164.183594 117.628906 162.332031 117.628906 C 160.484375 117.628906 158.832031 119.039062 158.832031 121.128906 Z M 165.050781 121.128906 C 165.050781 122.71875 163.835938 123.902344 162.332031 123.902344 C 160.8125 123.902344 159.617188 122.71875 159.617188 121.128906 C 159.617188 119.542969 160.8125 118.355469 162.332031 118.355469 C 163.835938 118.355469 165.050781 119.542969 165.050781 121.128906 Z M 163.277344 123.128906 L 164.0625 123.128906 L 162.914062 121.371094 C 163.527344 121.308594 163.996094 121.007812 163.996094 120.28125 C 163.996094 119.46875 163.480469 119.132812 162.492188 119.132812 L 160.933594 119.132812 L 160.933594 123.128906 L 161.605469 123.128906 L 161.605469 121.402344 L 162.230469 121.402344 Z M 161.605469 120.839844 L 161.605469 119.691406 L 162.378906 119.691406 C 162.78125 119.691406 163.265625 119.765625 163.265625 120.234375 C 163.265625 120.792969 162.828125 120.839844 162.324219 120.839844 Z M 161.605469 120.839844 " fill-opacity="1" fill-rule="evenodd"/></svg>